/* XPM */
static char *dummy[]={
"32 32 739 2",
"eA c None",
"gJ c None",
"jq c None",
"jA c None",
"bW c None",
"jp c None",
"iY c None",
"jc c None",
"jz c None",
"jG c None",
"hs c None",
"jo c None",
"hP c None",
"iX c None",
"iC c None",
"iW c None",
"gj c None",
"g7 c None",
"iB c None",
"iV c None",
"bw c None",
"by c None",
"gI c None",
"fU c None",
"bx c None",
"g8 c None",
"gi c None",
"hr c None",
"g6 c None",
"fs c None",
"fT c None",
"gG c None",
"e3 c None",
"gH c None",
"fr c None",
"gf c None",
"gg c None",
"gh c None",
"a9 c None",
"bX c None",
"fQ c None",
"fP c None",
"fR c None",
"fn c None",
"fS c None",
"fo c None",
"fp c None",
"fq c None",
"eZ c None",
"e0 c None",
"d9 c None",
"e1 c None",
"ez c None",
"ey c None",
"d8 c None",
".2 c None",
".e c None",
"dI c None",
"dH c None",
".1 c None",
".L c None",
".f c None",
"gK c None",
"df c None",
"#k c None",
"dg c None",
"aJ c None",
"bZ c None",
"aK c None",
"bY c None",
"co c None",
"cn c None",
"aj c None",
"ak c None",
".d c None",
"b1 c None",
"e. c None",
"b0 c None",
"e# c None",
"cQ c None",
"cP c None",
"bz c None",
"#V c None",
"#W c None",
"eB c None",
".t c None",
".s c None",
".K c None",
"b. c None",
"aM c None",
".v c None",
"aL c None",
".u c None",
"#z c None",
".0 c None",
".3 c None",
".c c None",
"cr c None",
"am c None",
"al c None",
"dJ c None",
"dK c None",
"cp c None",
"cq c None",
"cR c None",
"cS c None",
"dh c None",
"di c None",
"Qt c None",
".# c None",
".b c None",
"#X c None",
"#Y c None",
"#Z c None",
".M c None",
".j c None",
".N c None",
".a c None",
"#A c None",
".g c None",
".x c None",
".i c None",
".h c None",
".z c None",
".y c None",
".w c None",
"e2 c #000000",
"g5 c #0d7bc2",
"gk c #153e09",
"#f c #486b80",
"hQ c #000000",
"jB c #010306",
"id c #000000",
"bA c #365f2b",
"b# c #446e39",
"ht c #000000",
"jn c #010000",
"jb c #010101",
"cs c #134b06",
"eY c #1982c6",
"ea c #59bc3e",
"hu c #000000",
"#g c #527b48",
"jr c #000000",
"iZ c #000000",
"#j c #1a4003",
"ic c #000000",
"iA c #000000",
"iF c #020700",
"i# c #000000",
"il c #000509",
"fV c #1a4d0d",
"ib c #000000",
"bv c #043554",
"gF c #0e78bb",
"jy c #000101",
"ia c #000000",
".r c #113e5b",
"cm c #1c537a",
"i0 c #000000",
"dL c #4fb234",
"ex c #1b80c2",
"ik c #010200",
"iU c #000000",
"iz c #000000",
"iD c #030802",
"#h c #2c5c1f",
"#i c #1d4c0f",
"iG c #000000",
".4 c #517f9e",
"jC c #000407",
"cT c #66a555",
".Z c #41647b",
"iE c #061001",
"jF c #010407",
".k c #6790a7",
"cl c #00213d",
"d7 c #1a83c6",
"ja c #030402",
"jd c #00090e",
"ft c #286a16",
"#y c #48697d",
".J c #3e6279",
"ge c #1375b2",
"an c #638a57",
"dj c #6fbd5a",
"js c #01090f",
"hR c #030702",
"ix c #000000",
"i. c #051927",
"hZ c #000a16",
"ie c #071404",
"hv c #061503",
"jx c #030a0e",
"iy c #000000",
"iw c #02090d",
"#B c #729668",
"bV c #063757",
"a8 c #18425c",
"ck c #002b4d",
"iT c #000000",
"dG c #2185c4",
"g9 c #194b0b",
"e4 c #3e852a",
"hD c #001e30",
"#G c #1e4619",
"hO c #0b4d78",
"fO c #1774af",
"jD c #000f18",
"jm c #010b11",
"hf c #075d79",
".O c #83a3ba",
"jE c #021019",
".A c #7197af",
".q c #073959",
"b2 c #2f5a24",
"#U c #416176",
"#0 c #789c70",
"ij c #0c2003",
"aI c #32576c",
"j# c #010000",
"#l c #45779a",
"jt c #011827",
"de c #2f88c1",
"eC c #59ad42",
"gL c #329117",
"ai c #3d5f75",
"fm c #1a75b2",
"iS c #000000",
"hq c #1370ab",
"cU c #366a29",
".l c #396f90",
"aN c #507d44",
"iR c #000203",
"jw c #051825",
"i1 c #001f33",
"if c #102d08",
"cO c #397daa",
"hC c #17400b",
"hY c #0d2001",
"bB c #427036",
"#e c #325a74",
"iH c #003353",
"eb c #52a73a",
"he c #256f21",
"gT c #0b607b",
"gl c #31881a",
"ba c #4e7c42",
"g4 c #17689b",
"eX c #1e76af",
"je c #002943",
"#C c #4a7b3d",
".p c #074165",
"#F c #1d4e14",
"#H c #40728f",
"ii c #143a0e",
"ct c #1e4e11",
"im c #004875",
"ju c #012337",
".I c #093e5f",
".m c #1f5d84",
"cV c #235815",
"jl c #092b40",
"jv c #052233",
"cj c #003050",
"dM c #59a644",
"ew c #2779af",
"bu c #255370",
"c# c #184244",
".o c #0f4e76",
"ig c #163c0b",
"fW c #398c22",
"#D c #3f762f",
".Y c #154868",
"gE c #1c6c9e",
"gS c #2b7b27",
"#E c #2e6627",
"h0 c #005a94",
"iQ c #0b3956",
".n c #175880",
"iv c #104d72",
"hS c #194d0c",
"j. c #072538",
".B c #3b779b",
".5 c #5083a5",
"ca c #003457",
"ih c #133d11",
"bU c #195172",
"d6 c #3781b0",
"h9 c #155d8a",
"bK c #1b515e",
"hw c #287314",
"ao c #67965b",
"jf c #023f64",
"hE c #0569ab",
"gt c #13708b",
"gd c #2170a2",
"bL c #034a7b",
"cN c #34607d",
"fu c #469c2e",
"dk c #77ad68",
"#x c #285b7a",
"#7 c #396d81",
"cL c #104a6f",
"jk c #154260",
"cB c #24587d",
"gs c #318833",
"#1 c #67965a",
"cC c #0d4a70",
"cM c #295977",
"dF c #4786ad",
"c8 c #002947",
"c9 c #002c49",
"cE c #003359",
"cJ c #00365b",
"cD c #003a5f",
"cI c #003b63",
"cK c #003d66",
"cF c #003f68",
"jh c #004067",
"cH c #00446e",
"cG c #004571",
"cb c #004671",
"i2 c #004f81",
"cc c #00568b",
"cd c #005f9c",
"cf c #0062a0",
"ce c #0062a1",
"ci c #023d64",
"i5 c #024c7b",
"jg c #034974",
"iL c #03578c",
"i4 c #035a90",
"iI c #035f99",
"iK c #0369a8",
"ch c #045180",
"cg c #045f97",
"bM c #04619c",
".X c #05507f",
"iq c #055e96",
"ip c #0574b7",
"i3 c #065a8e",
"h4 c #06639e",
"#d c #074d79",
"a3 c #078ce0",
"c7 c #08304c",
"d. c #083857",
"in c #0870b0",
"bN c #0870b2",
".H c #094c78",
"hI c #0968a5",
"h3 c #097cc3",
"iJ c #0a6ca9",
"ji c #0b3b59",
"ag c #0b6ba7",
"io c #0b79bd",
"bk c #0c659e",
"#S c #0c68a2",
"h2 c #0c82cb",
"hg c #0d73bc",
"bp c #0d8bdb",
"i6 c #0e466a",
"bj c #0e4d7d",
"bT c #0e5e91",
"#w c #0e6195",
".W c #0e69a1",
"#c c #0e69a3",
"h1 c #0e7cc0",
"bQ c #0e7ec4",
"jj c #0f4263",
"hk c #0f6eaa",
"hH c #0f84cc",
"iM c #104f78",
"bO c #107cc1",
"ir c #115480",
"hG c #118ad6",
"ae c #118fdf",
"i9 c #124d74",
"i7 c #125179",
"h5 c #125887",
"hJ c #125c8b",
"bP c #1281c6",
"af c #1384ca",
"hl c #145f90",
"bq c #148ad5",
"bo c #148fdd",
"cX c #155300",
"iP c #155c89",
"gZ c #156395",
"gY c #1573b0",
"f4 c #1576a8",
"bl c #157bbb",
"#b c #157cbe",
"fC c #157cc0",
"gU c #157fca",
"do c #164812",
"dp c #164914",
"iN c #165f8e",
".G c #166394",
"gz c #166597",
"hF c #1685cc",
"a2 c #1698e9",
"dz c #175a86",
"bR c #177fbe",
"#u c #1789d1",
"#Q c #178edb",
"aE c #1790de",
"aD c #1798ea",
"g. c #18689b",
"aG c #1871aa",
"hj c #188bd2",
"hi c #1893de",
"cW c #195009",
"#T c #19577f",
"hV c #195d2a",
"is c #196899",
"iu c #19689a",
"i8 c #1a5980",
"d# c #1a5a84",
"hN c #1a6698",
"fI c #1a6ca0",
"aX c #1a78b3",
"#v c #1a7cbc",
"fb c #1a81cb",
"hh c #1a8cd5",
"gu c #1b88d6",
"a6 c #1c6ea3",
"h6 c #1c6fa4",
"eq c #1c70a5",
"gy c #1c79b6",
"#R c #1c85c8",
"bn c #1c90da",
"c0 c #1d6139",
"hp c #1d6c9d",
"eR c #1d70a5",
"h8 c #1d70a6",
"fJ c #1d7bb6",
"#6 c #1e5927",
"aW c #1e649a",
"iO c #1e6896",
"hK c #1e74ab",
"bS c #1e77b0",
"g0 c #1e79b2",
"g# c #1e7bb6",
"cY c #1f6c2d",
"hW c #1f6c3f",
"hm c #1f77af",
"gA c #1f7ab5",
"fh c #1f7bb6",
"gV c #1f93de",
"hz c #206a2d",
"d1 c #2073a7",
"hM c #2078b1",
"eS c #207cb5",
"er c #2179b0",
"bs c #2179b2",
".V c #217eba",
"it c #2273a6",
"hA c #227c50",
"bm c #228cd0",
"gW c #229ce6",
"hb c #237330",
"g3 c #2375a9",
"ej c #2385ad",
"gX c #2393d7",
"hX c #246622",
"hU c #246710",
"dU c #2483b9",
"f5 c #2490da",
"bi c #25714e",
"gP c #257931",
"ho c #2581bb",
"a4 c #2592d8",
"a1 c #259eeb",
"aw c #2672a8",
"f9 c #2681bc",
"gv c #269be5",
"aV c #27696b",
"bt c #276b97",
"h7 c #277cb3",
"eL c #278bd2",
"dA c #286f9c",
"hB c #287a44",
"gp c #287f34",
"hc c #288a56",
"cu c #297015",
"hT c #297217",
".F c #2976a7",
"dq c #2a6119",
"fN c #2a78aa",
"c1 c #2b7373",
"cZ c #2b7c59",
"gD c #2b81b7",
"aY c #2b90d0",
"ad c #2ba3ed",
"hy c #2c7913",
"f0 c #2c8436",
"hL c #2c84bd",
"f6 c #2ca0e9",
"ah c #2d698f",
"hd c #2d854a",
"g2 c #2d89c3",
"gQ c #2d945e",
"au c #2e8243",
"fD c #2e98dd",
"aZ c #2e9adf",
"a0 c #2e9fe9",
"gw c #2ea5eb",
"ax c #2f89c3",
"c. c #306857",
"av c #306b7e",
"#8 c #307cb2",
"fy c #308939",
"fE c #30a2eb",
"da c #31759f",
"ha c #318618",
"fH c #3189c2",
"hn c #318ac2",
"dW c #3197d7",
"gq c #319b62",
"dR c #32812e",
"dr c #328454",
"a5 c #328dc6",
"gB c #328fca",
"eK c #3291a1",
"aF c #3291cf",
"#a c #3295d4",
"g1 c #338ec7",
"hx c #348c1f",
"e9 c #348f3d",
"gC c #3490ca",
"gR c #349253",
"el c #349cdf",
"b3 c #357423",
"h. c #358b1d",
"ga c #3591cc",
"f1 c #35a066",
"aC c #35a9f3",
"ds c #368bc2",
"f3 c #36914e",
"fK c #3692cd",
"cw c #36954a",
"gx c #369edd",
"fd c #36a7ec",
"#5 c #378244",
"cv c #378e1e",
"gO c #378f20",
"gb c #3793cd",
"fc c #379fe1",
"gc c #388cc1",
"fi c #3892cc",
"eH c #38933f",
"br c #3894ce",
"dy c #39759c",
"fL c #3996cf",
"fz c #39a567",
"c6 c #3a627f",
"fl c #3a83b3",
"du c #3a95d0",
"gr c #3a9b5b",
"eM c #3aa0e3",
"#P c #3aa6eb",
"dn c #3b6a31",
"#I c #3b83b2",
"ek c #3b96d6",
"eg c #3b9744",
"fg c #3c91c8",
"fB c #3c9773",
"h# c #3c9c26",
"b7 c #3ca05d",
"fj c #3d97d1",
"#t c #3da3e4",
"gM c #3e9725",
"b6 c #3e9e56",
"bh c #3ea654",
"bH c #3eae57",
".C c #3f7fa8",
".E c #3f86b3",
"c4 c #3f8ebe",
"eT c #3f93ca",
"f. c #3fa769",
"a7 c #40708d",
"cy c #409261",
"fa c #409a91",
"cx c #409b6d",
"aU c #409f52",
"aH c #417698",
"#m c #4181a9",
"f2 c #41a35f",
"eN c #41abeb",
"f7 c #41b0ee",
"dB c #4285b0",
"b9 c #42906f",
".U c #4296cb",
"go c #42982a",
"gN c #43aa30",
"bJ c #448c57",
"b4 c #44992b",
"b8 c #44a466",
".P c #467fa3",
"d2 c #468dba",
"es c #4693c6",
"fM c #4696ca",
"eU c #469ad0",
"bI c #46a664",
"fA c #47a960",
"eI c #47a96c",
"c5 c #488ab1",
"bC c #488d36",
"eQ c #489acd",
"dV c #499dd6",
"eW c #4a90bd",
"gm c #4aa730",
"cA c #4b789e",
"cz c #4b8b92",
".D c #4b8cb5",
"f8 c #4ba9e2",
"f# c #4cad62",
"gn c #4eb53f",
"fk c #4f9ed0",
"ay c #4fa7de",
"em c #4fafe9",
"fZ c #50a139",
"eh c #50a970",
"bG c #50b665",
"et c #519dce",
"#9 c #519ecf",
"e5 c #51a839",
"b5 c #51ad3f",
"dd c #538db0",
"dm c #549747",
"dt c #549fd1",
"fX c #54b53c",
"ep c #559fcf",
"aB c #55b7f5",
"ev c #5699c4",
"eV c #56a1d1",
"dS c #56a25f",
"d3 c #579cc7",
"dC c #5895bd",
"eJ c #58b16c",
"dT c #59a57e",
"eD c #59ae42",
".6 c #5a95bb",
"ac c #5ab9f6",
"#4 c #5b9d64",
"fF c #5bbbf0",
"fv c #5bbd46",
"fY c #5bbf54",
"bb c #5c9d4c",
"bg c #5cbd67",
"eu c #5ea4d2",
"c2 c #5fa3d3",
"at c #60b062",
"ei c #61af7a",
"ec c #61b04c",
"dX c #61b2e3",
"db c #6296b8",
"d5 c #62a0c7",
".Q c #639bbf",
"fx c #63ac4c",
"bF c #63b470",
"e6 c #63c150",
"c3 c #64a5cf",
"fG c #64b4e4",
"d0 c #65abd8",
"dl c #67a357",
"## c #67b3e4",
"bD c #67b450",
"az c #67b9ed",
"d4 c #68a7d0",
"dE c #69a1c4",
"aA c #6abef4",
"eE c #6ac35b",
"aO c #6ba15c",
".T c #6badd8",
"dN c #6baf57",
"#J c #70add4",
"ed c #70c166",
"dc c #71a3c3",
"dD c #71a9cc",
"fw c #71ca6e",
"aT c #74c46f",
"#n c #76add0",
"e8 c #78b761",
"bE c #78c16b",
"#O c #78c5f6",
"fe c #78c7f2",
"dv c #7cbfe4",
"#3 c #7db17a",
"ff c #7ebfe8",
"#s c #7ec4f1",
"dO c #82c37f",
"#2 c #86b478",
"bf c #86d093",
".S c #88bcdd",
"a. c #88c3ea",
"dQ c #8bb578",
".R c #8cbcd9",
"e7 c #8cd48e",
"eG c #8dc278",
"ab c #8fd1fa",
"eP c #96caeb",
"eO c #97d3f4",
"as c #9bd098",
"bc c #a0d190",
"be c #a2d1bb",
"ap c #a4c999",
".7 c #a4cae4",
"#. c #a5d3f0",
"ef c #a8d296",
"eF c #abdeb1",
"dx c #acc6d7",
"eo c #add3ec",
"a# c #b0dbf7",
"en c #b3ddf4",
"aa c #b3dff9",
"aS c #b3e2ac",
"ar c #b6d6c5",
"#K c #b6daf1",
"bd c #bcdcc1",
"#o c #c0ddf0",
"#N c #c1e4fb",
"aP c #c3e1b9",
"dZ c #c8e2f4",
"#r c #cae7fa",
".8 c #cbe2f3",
"aR c #cde4e4",
"dY c #cde8f5",
".9 c #cfe6f6",
"ee c #d0edd5",
"aq c #d3e7d4",
"dP c #d9eede",
"dw c #def0f9",
"aQ c #e6eef2",
"#L c #ecf7fd",
"#M c #f0f9fe",
"#p c #f6fafe",
"#q c #fcfeff",
"QtQtQt.#.a.b.c.d.e.f.g.h.i.j.k.l.m.n.o.p.q.r.s.t.u.v.v.v.v.v.v.w",
"QtQtQt.#.a.b.c.d.e.f.x.y.z.A.B.C.D.E.F.G.H.I.J.K.u.v.v.v.v.v.v.w",
"QtQtQt.#.a.b.c.d.e.L.M.N.O.P.Q.R.S.T.U.V.W.X.Y.Z.0.v.v.v.v.v.v.w",
"QtQtQt.#.a.b.c.d.1.2.3.4.5.6.7.8.9#.###a#b#c#d#e#f.v.v.v.v.v.v.w",
"QtQtQt.#.a.b#g#h#i#j#k#l#m#n#o#p#q#r#s#t#u#v#w#x#y#z#z#z#z#z#z.w",
"QtQtQt.##A#B#C#D#E#F#G#H#I#J#K#L#M#N#O#P#Q#R#S#T#U#V#W#W#W#W#W.w",
"#X#X#Y#Z#0#1#2#3#4#5#6#7#8#9a.a#aaabacadaeafagahaiajakakakakak.w",
"alalamanaoapaqarasatauavawaxayazaAaBaCaDaEaFaGaHaIaJaKaKaKaKaK.w",
"aLaLaMaNaOaPaQaRaSaTaUaVaWaXaYaZa0a1a2a3a4a5a6a7a8a9a9a9a9a9a9.w",
"b.b.b#babbbcbdbebfbgbhbibjbkblbmbnbobpbqbrbsbtbubvbwbxbybybyby.w",
"bzbzbAbBbCbDbEbFbGbHbIbJbKbLbMbNbObPbQbRbSbTbUbVbWbXbYbZbZbZbZ.w",
"b0b0b1b2b3b4b5b6b7b8b9c.c#cacbcccdcecfcgchcicjckclcmcncocococo.w",
"cpcqcrcsctcucvcwcxcyczcAcBcCcDcEcFcGcHcIcJcKcLcMcNcOcPcQcQcQcQ.w",
"cRcScTcUcVcWcXcYcZc0c1c2c3c4c5c6c7c8c9d.d#dadbdcdddedfdgdgdgdg.w",
"dhdidjdkdldmdndodpdqdrdsdtdudvdwdxdydzdAdBdCdDdEdFdGdHdIdIdIdI.w",
"dJdKdLdMdNdOdPdQdRdSdTdUdVdWdXdYdZd0d1d1d2d3d4d5d6d7d8d9d9d9d9.w",
"e.e#eaebecedeeefegeheiejekelemeneoepeqereseteuevewexeyezezezez.w",
"eAeAeBeCeDeEeFeGeHeIeJeKeLeMeNeOePeQeReSeTeUeVeWeXeYeZeZeZe0e1.w",
"eAe2e3e4e5e6e7e8e9f.f#fafbfcfdfefffga6fhfifjfkflfmfnfofofpfqfr.w",
"e2e2fsftfufvfwfxfyfzfAfBfCfDfEfFfGfHfIfJfKfLfMfNfOfPfQfRfSfTeA.w",
"e2e2fUfVfWfXfYfZf0f1f2f3f4f5f6f7f8f9g.g#gagbgcgdgegfggghgieAeA.w",
"eAeAgjgkglgmgngogpgqgrgsgtgugvgwgxgygzgAgBgCgDgEgFgGgHgIeAeAeA.w",
"eAeAgJgKgLgMgNgOgPgQgRgSgTgUgVgWgXgYgZg0g1g2g3g4g5g6g7eAeAeAeA.w",
"e2e2eAg8g9h.h#hahbhchdhehfhghhhihjhkhlhmhnhohphqhrhseAeAeAeAeA.w",
"e2e2hthuhvhwhxhyhzhAhBhChDhEhFhGhHhIhJhKhLhMhNhOhPeAeAeAeAeAe2.w",
"eAe2hQhuhRhShThUhVhWhXhYhZh0h1h2h3h4h5h6h7h8h9i.hti#iaibichuhQ.w",
"eAe2eAeAidieifigihiiijikiliminioipiqirisitiuiviwixiyixiziAhQeA.w",
"eAeAeAeAeAiBiCiDiEiFeAiaiGiHiIiJiKiLiMiNiOiPiQiRiSiTiUhueAeAeA.w",
"eAeAeAeAeAiViWiXiYeAe2iZi0i1i2i3i4i5i6i7i8i9j.j#jajbeAeAeAeAeA.w",
"eAeAeAeAeAiViWiCjceAeAeAeAjdjejfjgjhjijjjkjljmjnjojpeAeAeAeAeA.w",
"eAeAeAeAeAiViWiCjceAeAe2e2jqjrjsjtjujvjwjxjyjzeAeAeAeAeAeAeAeA.w",
"eAeAeAeAeAiViWiCjceAeAeAeAjAeAjBjCjDjEjFjreAjGeAeAeAeAeAeAeAeA.w"};
